<svg width="44" height="44" viewBox="0 0 44 44" fill="none" xmlns="http://www.w3.org/2000/svg">
<g filter="url(#filter0_d_49_2901)">
<rect x="4" width="36" height="36" rx="18" fill="#488AC6" shape-rendering="crispEdges"/>
<path d="M15 25H16.425L26.2 15.225L24.775 13.8L15 23.575V25ZM13 27V22.75L26.2 9.575C26.4 9.39167 26.6208 9.25 26.8625 9.15C27.1042 9.05 27.3583 9 27.625 9C27.8917 9 28.15 9.05 28.4 9.15C28.65 9.25 28.8667 9.4 29.05 9.6L30.425 11C30.625 11.1833 30.7708 11.4 30.8625 11.65C30.9542 11.9 31 12.15 31 12.4C31 12.6667 30.9542 12.9208 30.8625 13.1625C30.7708 13.4042 30.625 13.625 30.425 13.825L17.25 27H13ZM25.475 14.525L24.775 13.8L26.2 15.225L25.475 14.525Z" fill="white"/>
</g>
<defs>
<filter id="filter0_d_49_2901" x="0" y="0" width="44" height="44" filterUnits="userSpaceOnUse" color-interpolation-filters="sRGB">
<feFlood flood-opacity="0" result="BackgroundImageFix"/>
<feColorMatrix in="SourceAlpha" type="matrix" values="0 0 0 0 0 0 0 0 0 0 0 0 0 0 0 0 0 0 127 0" result="hardAlpha"/>
<feOffset dy="4"/>
<feGaussianBlur stdDeviation="2"/>
<feComposite in2="hardAlpha" operator="out"/>
<feColorMatrix type="matrix" values="0 0 0 0 0 0 0 0 0 0 0 0 0 0 0 0 0 0 0.25 0"/>
<feBlend mode="normal" in2="BackgroundImageFix" result="effect1_dropShadow_49_2901"/>
<feBlend mode="normal" in="SourceGraphic" in2="effect1_dropShadow_49_2901" result="shape"/>
</filter>
</defs>
</svg>
