<svg width="116" height="42" viewBox="0 0 116 42" fill="none" xmlns="http://www.w3.org/2000/svg">
<rect x="0.851562" y="0.490234" width="113.8" height="41" rx="20.5" fill="#112F5F"/>
<rect x="0.851562" y="0.490234" width="113.8" height="41" rx="20.5" stroke="#112F5F"/>
<path d="M23.2812 25.6472L31.9382 16.9902H25.3523V14.9902H34.3522C34.6175 14.9902 34.8718 15.0956 35.0594 15.2831C35.2469 15.4707 35.3522 15.725 35.3522 15.9902V24.9902H33.3522V18.4052L24.6962 27.0612L23.2812 25.6472Z" fill="white"/>
<path d="M46.2839 25.3105V15.1287H53.0254V16.9036H48.4366V19.3297H52.5779V21.1046H48.4366V25.3105H46.2839ZM54.4733 25.3105V15.1287H56.626V23.5357H60.9911V25.3105H54.4733ZM60.5213 15.1287H62.9325L65.2542 19.5137H65.3537L67.6754 15.1287H70.0866L66.3728 21.7111V25.3105H64.2351V21.7111L60.5213 15.1287ZM71.5172 16.9036V15.1287H79.8794V16.9036H76.7622V25.3105H74.6344V16.9036H71.5172ZM80.8688 16.9036V15.1287H89.231V16.9036H86.1138V25.3105H83.9859V16.9036H80.8688ZM91.1189 25.3105H88.8121L92.327 15.1287H95.1012L98.6111 25.3105H96.3043L93.7539 17.4554H93.6743L91.1189 25.3105ZM90.9748 21.3084H96.4236V22.9888H90.9748V21.3084Z" fill="white"/>
</svg>
