<svg width="120" height="42" viewBox="0 0 120 42" fill="none" xmlns="http://www.w3.org/2000/svg">
<rect x="0.640625" y="0.490234" width="118.23" height="41" rx="20.5" fill="#112F5F"/>
<rect x="0.640625" y="0.490234" width="118.23" height="41" rx="20.5" stroke="#112F5F"/>
<path d="M24.1914 24.526L27.7274 20.99L24.1914 17.455L25.6064 16.04L29.1414 19.576L32.6774 16.041L34.0914 17.455L30.5554 20.99L34.0914 24.526L32.6774 25.94L29.1414 22.405L25.6064 25.94L24.1914 24.526Z" fill="white"/>
<path d="M46.0529 25.3105V15.1287H50.07C50.8389 15.1287 51.4952 15.2663 52.0387 15.5414C52.5856 15.8132 53.0016 16.1993 53.2866 16.6998C53.575 17.1969 53.7191 17.7819 53.7191 18.4547C53.7191 19.1309 53.5733 19.7125 53.2816 20.1998C52.99 20.6837 52.5674 21.0549 52.0139 21.3134C51.4637 21.5719 50.7975 21.7012 50.0153 21.7012H47.3257V19.9711H49.6673C50.0783 19.9711 50.4197 19.9147 50.6914 19.802C50.9632 19.6893 51.1654 19.5203 51.298 19.2949C51.4339 19.0695 51.5018 18.7895 51.5018 18.4547C51.5018 18.1167 51.4339 17.8316 51.298 17.5996C51.1654 17.3676 50.9616 17.1919 50.6865 17.0726C50.4147 16.95 50.0716 16.8887 49.6573 16.8887H48.2056V25.3105H46.0529ZM51.5515 20.677L54.0821 25.3105H51.7056L49.2298 20.677H51.5515ZM56.9954 25.3105H54.6886L58.2035 15.1287H60.9777L64.4876 25.3105H62.1808L59.6304 17.4554H59.5508L56.9954 25.3105ZM56.8512 21.3084H62.3001V22.9888H56.8512V21.3084ZM69.3225 25.3105H65.7131V15.1287H69.3523C70.3765 15.1287 71.2581 15.3326 71.9972 15.7402C72.7363 16.1446 73.3047 16.7263 73.7024 17.4853C74.1035 18.2443 74.304 19.1524 74.304 20.2097C74.304 21.2703 74.1035 22.1818 73.7024 22.9441C73.3047 23.7064 72.733 24.2914 71.9872 24.699C71.2448 25.1067 70.3566 25.3105 69.3225 25.3105ZM67.8658 23.4661H69.233C69.8693 23.4661 70.4046 23.3534 70.8388 23.128C71.2763 22.8993 71.6044 22.5463 71.8232 22.0691C72.0452 21.5885 72.1563 20.9687 72.1563 20.2097C72.1563 19.4573 72.0452 18.8425 71.8232 18.3652C71.6044 17.888 71.278 17.5366 70.8438 17.3113C70.4096 17.0859 69.8743 16.9732 69.238 16.9732H67.8658V23.4661ZM75.8986 25.3105V15.1287H82.7594V16.9036H78.0513V19.3297H82.4065V21.1046H78.0513V23.5357H82.7793V25.3105H75.8986ZM84.4709 25.3105V15.1287H88.488C89.2569 15.1287 89.9131 15.2663 90.4567 15.5414C91.0036 15.8132 91.4195 16.1993 91.7046 16.6998C91.9929 17.1969 92.1371 17.7819 92.1371 18.4547C92.1371 19.1309 91.9913 19.7125 91.6996 20.1998C91.4079 20.6837 90.9854 21.0549 90.4318 21.3134C89.8817 21.5719 89.2155 21.7012 88.4333 21.7012H85.7436V19.9711H88.0853C88.4962 19.9711 88.8376 19.9147 89.1094 19.802C89.3812 19.6893 89.5834 19.5203 89.7159 19.2949C89.8518 19.0695 89.9198 18.7895 89.9198 18.4547C89.9198 18.1167 89.8518 17.8316 89.7159 17.5996C89.5834 17.3676 89.3795 17.1919 89.1044 17.0726C88.8327 16.95 88.4896 16.8887 88.0753 16.8887H86.6236V25.3105H84.4709ZM89.9695 20.677L92.5 25.3105H90.1236L87.6478 20.677H89.9695ZM95.4134 25.3105H93.1066L96.6215 15.1287H99.3956L102.906 25.3105H100.599L98.0483 17.4554H97.9688L95.4134 25.3105ZM95.2692 21.3084H100.718V22.9888H95.2692V21.3084Z" fill="white"/>
</svg>
