<svg width="243" height="48" viewBox="0 0 243 48" fill="none" xmlns="http://www.w3.org/2000/svg">
<g filter="url(#filter0_d_118_5545)">
<rect x="4" width="235" height="40" rx="20" fill="#488AC6" shape-rendering="crispEdges"/>
<rect x="4.5" y="0.5" width="234" height="39" rx="19.5" stroke="#488AC6" shape-rendering="crispEdges"/>
<path d="M28.2601 14.848V16.032H25.2201V26H23.7641V16.032H20.7081V14.848H28.2601ZM30.8043 15.808C30.527 15.808 30.2923 15.712 30.1003 15.52C29.9083 15.328 29.8123 15.0933 29.8123 14.816C29.8123 14.5387 29.9083 14.304 30.1003 14.112C30.2923 13.92 30.527 13.824 30.8043 13.824C31.071 13.824 31.295 13.92 31.4763 14.112C31.6683 14.304 31.7643 14.5387 31.7643 14.816C31.7643 15.0933 31.6683 15.328 31.4763 15.52C31.295 15.712 31.071 15.808 30.8043 15.808ZM31.5083 17.232V26H30.0523V17.232H31.5083ZM35.4458 14.16V26H33.9898V14.16H35.4458ZM39.3833 14.16V26H37.9273V14.16H39.3833ZM43.3208 18.864C43.6195 18.3413 44.0568 17.9147 44.6328 17.584C45.2088 17.2533 45.8648 17.088 46.6008 17.088C47.3901 17.088 48.0995 17.2747 48.7288 17.648C49.3581 18.0213 49.8541 18.5493 50.2168 19.232C50.5795 19.904 50.7608 20.688 50.7608 21.584C50.7608 22.4693 50.5795 23.2587 50.2168 23.952C49.8541 24.6453 49.3528 25.184 48.7128 25.568C48.0835 25.952 47.3795 26.144 46.6008 26.144C45.8435 26.144 45.1768 25.9787 44.6008 25.648C44.0355 25.3173 43.6088 24.896 43.3208 24.384V26H41.8648V14.16H43.3208V18.864ZM49.2728 21.584C49.2728 20.9227 49.1395 20.3467 48.8728 19.856C48.6061 19.3653 48.2435 18.992 47.7848 18.736C47.3368 18.48 46.8408 18.352 46.2968 18.352C45.7635 18.352 45.2675 18.4853 44.8088 18.752C44.3608 19.008 43.9981 19.3867 43.7208 19.888C43.4541 20.3787 43.3208 20.9493 43.3208 21.6C43.3208 22.2613 43.4541 22.8427 43.7208 23.344C43.9981 23.8347 44.3608 24.2133 44.8088 24.48C45.2675 24.736 45.7635 24.864 46.2968 24.864C46.8408 24.864 47.3368 24.736 47.7848 24.48C48.2435 24.2133 48.6061 23.8347 48.8728 23.344C49.1395 22.8427 49.2728 22.256 49.2728 21.584ZM52.1333 21.584C52.1333 20.688 52.3146 19.904 52.6773 19.232C53.04 18.5493 53.536 18.0213 54.1653 17.648C54.8053 17.2747 55.5146 17.088 56.2933 17.088C57.0613 17.088 57.728 17.2533 58.2933 17.584C58.8586 17.9147 59.28 18.3307 59.5573 18.832V17.232H61.0293V26H59.5573V24.368C59.2693 24.88 58.8373 25.3067 58.2613 25.648C57.696 25.9787 57.0346 26.144 56.2773 26.144C55.4986 26.144 54.7946 25.952 54.1653 25.568C53.536 25.184 53.04 24.6453 52.6773 23.952C52.3146 23.2587 52.1333 22.4693 52.1333 21.584ZM59.5573 21.6C59.5573 20.9387 59.424 20.3627 59.1573 19.872C58.8906 19.3813 58.528 19.008 58.0693 18.752C57.6213 18.4853 57.1253 18.352 56.5813 18.352C56.0373 18.352 55.5413 18.48 55.0933 18.736C54.6453 18.992 54.288 19.3653 54.0213 19.856C53.7546 20.3467 53.6213 20.9227 53.6213 21.584C53.6213 22.256 53.7546 22.8427 54.0213 23.344C54.288 23.8347 54.6453 24.2133 55.0933 24.48C55.5413 24.736 56.0373 24.864 56.5813 24.864C57.1253 24.864 57.6213 24.736 58.0693 24.48C58.528 24.2133 58.8906 23.8347 59.1573 23.344C59.424 22.8427 59.5573 22.2613 59.5573 21.6ZM68.3858 26L64.9458 22.128V26H63.4898V14.16H64.9458V21.12L68.3218 17.232H70.3538L66.2258 21.6L70.3698 26H68.3858ZM71.1802 21.584C71.1802 20.688 71.3615 19.904 71.7242 19.232C72.0869 18.5493 72.5829 18.0213 73.2122 17.648C73.8522 17.2747 74.5615 17.088 75.3402 17.088C76.1082 17.088 76.7749 17.2533 77.3402 17.584C77.9055 17.9147 78.3269 18.3307 78.6042 18.832V17.232H80.0762V26H78.6042V24.368C78.3162 24.88 77.8842 25.3067 77.3082 25.648C76.7429 25.9787 76.0815 26.144 75.3242 26.144C74.5455 26.144 73.8415 25.952 73.2122 25.568C72.5829 25.184 72.0869 24.6453 71.7242 23.952C71.3615 23.2587 71.1802 22.4693 71.1802 21.584ZM78.6042 21.6C78.6042 20.9387 78.4709 20.3627 78.2042 19.872C77.9375 19.3813 77.5749 19.008 77.1162 18.752C76.6682 18.4853 76.1722 18.352 75.6282 18.352C75.0842 18.352 74.5882 18.48 74.1402 18.736C73.6922 18.992 73.3349 19.3653 73.0682 19.856C72.8015 20.3467 72.6682 20.9227 72.6682 21.584C72.6682 22.256 72.8015 22.8427 73.0682 23.344C73.3349 23.8347 73.6922 24.2133 74.1402 24.48C74.5882 24.736 75.0842 24.864 75.6282 24.864C76.1722 24.864 76.6682 24.736 77.1162 24.48C77.5749 24.2133 77.9375 23.8347 78.2042 23.344C78.4709 22.8427 78.6042 22.2613 78.6042 21.6ZM88.5783 18.432V23.6C88.5783 24.0267 88.669 24.3307 88.8503 24.512C89.0316 24.6827 89.3463 24.768 89.7943 24.768H90.8663V26H89.5543C88.7436 26 88.1356 25.8133 87.7303 25.44C87.325 25.0667 87.1223 24.4533 87.1223 23.6V18.432H85.9863V17.232H87.1223V15.024H88.5783V17.232H90.8663V18.432H88.5783ZM93.3824 15.808C93.1051 15.808 92.8704 15.712 92.6784 15.52C92.4864 15.328 92.3904 15.0933 92.3904 14.816C92.3904 14.5387 92.4864 14.304 92.6784 14.112C92.8704 13.92 93.1051 13.824 93.3824 13.824C93.6491 13.824 93.8731 13.92 94.0544 14.112C94.2464 14.304 94.3424 14.5387 94.3424 14.816C94.3424 15.0933 94.2464 15.328 94.0544 15.52C93.8731 15.712 93.6491 15.808 93.3824 15.808ZM94.0864 17.232V26H92.6304V17.232H94.0864ZM98.0239 14.16V26H96.5679V14.16H98.0239ZM101.961 14.16V26H100.505V14.16H101.961ZM112.181 14.848C113.397 14.848 114.447 15.0773 115.333 15.536C116.229 15.984 116.911 16.6293 117.381 17.472C117.861 18.3147 118.101 19.3067 118.101 20.448C118.101 21.5893 117.861 22.5813 117.381 23.424C116.911 24.256 116.229 24.896 115.333 25.344C114.447 25.7813 113.397 26 112.181 26H108.709V14.848H112.181ZM112.181 24.8C113.621 24.8 114.719 24.4213 115.477 23.664C116.234 22.896 116.613 21.824 116.613 20.448C116.613 19.0613 116.229 17.9787 115.461 17.2C114.703 16.4213 113.61 16.032 112.181 16.032H110.165V24.8H112.181ZM119.477 21.584C119.477 20.688 119.658 19.904 120.021 19.232C120.384 18.5493 120.88 18.0213 121.509 17.648C122.149 17.2747 122.858 17.088 123.637 17.088C124.405 17.088 125.072 17.2533 125.637 17.584C126.202 17.9147 126.624 18.3307 126.901 18.832V17.232H128.373V26H126.901V24.368C126.613 24.88 126.181 25.3067 125.605 25.648C125.04 25.9787 124.378 26.144 123.621 26.144C122.842 26.144 122.138 25.952 121.509 25.568C120.88 25.184 120.384 24.6453 120.021 23.952C119.658 23.2587 119.477 22.4693 119.477 21.584ZM126.901 21.6C126.901 20.9387 126.768 20.3627 126.501 19.872C126.234 19.3813 125.872 19.008 125.413 18.752C124.965 18.4853 124.469 18.352 123.925 18.352C123.381 18.352 122.885 18.48 122.437 18.736C121.989 18.992 121.632 19.3653 121.365 19.856C121.098 20.3467 120.965 20.9227 120.965 21.584C120.965 22.256 121.098 22.8427 121.365 23.344C121.632 23.8347 121.989 24.2133 122.437 24.48C122.885 24.736 123.381 24.864 123.925 24.864C124.469 24.864 124.965 24.736 125.413 24.48C125.872 24.2133 126.234 23.8347 126.501 23.344C126.768 22.8427 126.901 22.2613 126.901 21.6ZM133.938 26.144C133.266 26.144 132.663 26.032 132.13 25.808C131.596 25.5733 131.175 25.2533 130.866 24.848C130.556 24.432 130.386 23.9573 130.354 23.424H131.858C131.9 23.8613 132.103 24.2187 132.466 24.496C132.839 24.7733 133.324 24.912 133.922 24.912C134.476 24.912 134.914 24.7893 135.234 24.544C135.554 24.2987 135.714 23.9893 135.714 23.616C135.714 23.232 135.543 22.9493 135.202 22.768C134.86 22.576 134.332 22.3893 133.618 22.208C132.967 22.0373 132.434 21.8667 132.018 21.696C131.612 21.5147 131.26 21.2533 130.962 20.912C130.674 20.56 130.53 20.1013 130.53 19.536C130.53 19.088 130.663 18.6773 130.93 18.304C131.196 17.9307 131.575 17.6373 132.066 17.424C132.556 17.2 133.116 17.088 133.746 17.088C134.716 17.088 135.5 17.3333 136.098 17.824C136.695 18.3147 137.015 18.9867 137.058 19.84H135.602C135.57 19.3813 135.383 19.0133 135.042 18.736C134.711 18.4587 134.263 18.32 133.698 18.32C133.175 18.32 132.759 18.432 132.45 18.656C132.14 18.88 131.986 19.1733 131.986 19.536C131.986 19.824 132.076 20.064 132.258 20.256C132.45 20.4373 132.684 20.5867 132.962 20.704C133.25 20.8107 133.644 20.9333 134.146 21.072C134.775 21.2427 135.287 21.4133 135.682 21.584C136.076 21.744 136.412 21.9893 136.69 22.32C136.978 22.6507 137.127 23.0827 137.138 23.616C137.138 24.096 137.004 24.528 136.738 24.912C136.471 25.296 136.092 25.6 135.602 25.824C135.122 26.0373 134.567 26.144 133.938 26.144ZM143.545 17.072C144.206 17.072 144.804 17.216 145.337 17.504C145.87 17.7813 146.286 18.2027 146.585 18.768C146.894 19.3333 147.049 20.0213 147.049 20.832V26H145.609V21.04C145.609 20.1653 145.39 19.4987 144.953 19.04C144.516 18.5707 143.918 18.336 143.161 18.336C142.393 18.336 141.78 18.576 141.321 19.056C140.873 19.536 140.649 20.2347 140.649 21.152V26H139.193V14.16H140.649V18.48C140.937 18.032 141.332 17.6853 141.833 17.44C142.345 17.1947 142.916 17.072 143.545 17.072ZM150.883 18.864C151.182 18.3413 151.619 17.9147 152.195 17.584C152.771 17.2533 153.427 17.088 154.163 17.088C154.953 17.088 155.662 17.2747 156.291 17.648C156.921 18.0213 157.417 18.5493 157.779 19.232C158.142 19.904 158.323 20.688 158.323 21.584C158.323 22.4693 158.142 23.2587 157.779 23.952C157.417 24.6453 156.915 25.184 156.275 25.568C155.646 25.952 154.942 26.144 154.163 26.144C153.406 26.144 152.739 25.9787 152.163 25.648C151.598 25.3173 151.171 24.896 150.883 24.384V26H149.427V14.16H150.883V18.864ZM156.835 21.584C156.835 20.9227 156.702 20.3467 156.435 19.856C156.169 19.3653 155.806 18.992 155.347 18.736C154.899 18.48 154.403 18.352 153.859 18.352C153.326 18.352 152.83 18.4853 152.371 18.752C151.923 19.008 151.561 19.3867 151.283 19.888C151.017 20.3787 150.883 20.9493 150.883 21.6C150.883 22.2613 151.017 22.8427 151.283 23.344C151.561 23.8347 151.923 24.2133 152.371 24.48C152.83 24.736 153.326 24.864 153.859 24.864C154.403 24.864 154.899 24.736 155.347 24.48C155.806 24.2133 156.169 23.8347 156.435 23.344C156.702 22.8427 156.835 22.256 156.835 21.584ZM164.064 26.144C163.242 26.144 162.496 25.9573 161.824 25.584C161.162 25.2107 160.64 24.6827 160.256 24C159.882 23.3067 159.696 22.5067 159.696 21.6C159.696 20.704 159.888 19.9147 160.272 19.232C160.666 18.5387 161.2 18.0107 161.872 17.648C162.544 17.2747 163.296 17.088 164.128 17.088C164.96 17.088 165.712 17.2747 166.384 17.648C167.056 18.0107 167.584 18.5333 167.968 19.216C168.362 19.8987 168.56 20.6933 168.56 21.6C168.56 22.5067 168.357 23.3067 167.952 24C167.557 24.6827 167.018 25.2107 166.336 25.584C165.653 25.9573 164.896 26.144 164.064 26.144ZM164.064 24.864C164.586 24.864 165.077 24.7413 165.536 24.496C165.994 24.2507 166.362 23.8827 166.64 23.392C166.928 22.9013 167.072 22.304 167.072 21.6C167.072 20.896 166.933 20.2987 166.656 19.808C166.378 19.3173 166.016 18.9547 165.568 18.72C165.12 18.4747 164.634 18.352 164.112 18.352C163.578 18.352 163.088 18.4747 162.64 18.72C162.202 18.9547 161.85 19.3173 161.584 19.808C161.317 20.2987 161.184 20.896 161.184 21.6C161.184 22.3147 161.312 22.9173 161.568 23.408C161.834 23.8987 162.186 24.2667 162.624 24.512C163.061 24.7467 163.541 24.864 164.064 24.864ZM169.93 21.584C169.93 20.688 170.112 19.904 170.474 19.232C170.837 18.5493 171.333 18.0213 171.962 17.648C172.602 17.2747 173.312 17.088 174.09 17.088C174.858 17.088 175.525 17.2533 176.09 17.584C176.656 17.9147 177.077 18.3307 177.354 18.832V17.232H178.826V26H177.354V24.368C177.066 24.88 176.634 25.3067 176.058 25.648C175.493 25.9787 174.832 26.144 174.074 26.144C173.296 26.144 172.592 25.952 171.962 25.568C171.333 25.184 170.837 24.6453 170.474 23.952C170.112 23.2587 169.93 22.4693 169.93 21.584ZM177.354 21.6C177.354 20.9387 177.221 20.3627 176.954 19.872C176.688 19.3813 176.325 19.008 175.866 18.752C175.418 18.4853 174.922 18.352 174.378 18.352C173.834 18.352 173.338 18.48 172.89 18.736C172.442 18.992 172.085 19.3653 171.818 19.856C171.552 20.3467 171.418 20.9227 171.418 21.584C171.418 22.256 171.552 22.8427 171.818 23.344C172.085 23.8347 172.442 24.2133 172.89 24.48C173.338 24.736 173.834 24.864 174.378 24.864C174.922 24.864 175.418 24.736 175.866 24.48C176.325 24.2133 176.688 23.8347 176.954 23.344C177.221 22.8427 177.354 22.2613 177.354 21.6ZM182.743 18.656C182.999 18.1547 183.361 17.7653 183.831 17.488C184.311 17.2107 184.892 17.072 185.575 17.072V18.576H185.191C183.559 18.576 182.743 19.4613 182.743 21.232V26H181.287V17.232H182.743V18.656ZM186.711 21.584C186.711 20.688 186.893 19.904 187.255 19.232C187.618 18.5493 188.114 18.0213 188.743 17.648C189.383 17.2747 190.098 17.088 190.887 17.088C191.57 17.088 192.205 17.248 192.791 17.568C193.378 17.8773 193.826 18.288 194.135 18.8V14.16H195.607V26H194.135V24.352C193.847 24.8747 193.421 25.3067 192.855 25.648C192.29 25.9787 191.629 26.144 190.871 26.144C190.093 26.144 189.383 25.952 188.743 25.568C188.114 25.184 187.618 24.6453 187.255 23.952C186.893 23.2587 186.711 22.4693 186.711 21.584ZM194.135 21.6C194.135 20.9387 194.002 20.3627 193.735 19.872C193.469 19.3813 193.106 19.008 192.647 18.752C192.199 18.4853 191.703 18.352 191.159 18.352C190.615 18.352 190.119 18.48 189.671 18.736C189.223 18.992 188.866 19.3653 188.599 19.856C188.333 20.3467 188.199 20.9227 188.199 21.584C188.199 22.256 188.333 22.8427 188.599 23.344C188.866 23.8347 189.223 24.2133 189.671 24.48C190.119 24.736 190.615 24.864 191.159 24.864C191.703 24.864 192.199 24.736 192.647 24.48C193.106 24.2133 193.469 23.8347 193.735 23.344C194.002 22.8427 194.135 22.2613 194.135 21.6Z" fill="white"/>
<path d="M221 27V23C221 22.1667 220.708 21.4583 220.125 20.875C219.542 20.2917 218.833 20 218 20H208.825L212.425 23.6L211 25L205 19L211 13L212.425 14.4L208.825 18H218C219.383 18 220.562 18.4875 221.538 19.4625C222.513 20.4375 223 21.6167 223 23V27H221Z" fill="white"/>
</g>
<defs>
<filter id="filter0_d_118_5545" x="0" y="0" width="243" height="48" filterUnits="userSpaceOnUse" color-interpolation-filters="sRGB">
<feFlood flood-opacity="0" result="BackgroundImageFix"/>
<feColorMatrix in="SourceAlpha" type="matrix" values="0 0 0 0 0 0 0 0 0 0 0 0 0 0 0 0 0 0 127 0" result="hardAlpha"/>
<feOffset dy="4"/>
<feGaussianBlur stdDeviation="2"/>
<feComposite in2="hardAlpha" operator="out"/>
<feColorMatrix type="matrix" values="0 0 0 0 0 0 0 0 0 0 0 0 0 0 0 0 0 0 0.25 0"/>
<feBlend mode="normal" in2="BackgroundImageFix" result="effect1_dropShadow_118_5545"/>
<feBlend mode="normal" in="SourceGraphic" in2="effect1_dropShadow_118_5545" result="shape"/>
</filter>
</defs>
</svg>
