<svg width="142" height="42" viewBox="0 0 142 42" fill="none" xmlns="http://www.w3.org/2000/svg">
<rect x="0.5" y="0.490234" width="140.34" height="41" rx="20.5" fill="#112F5F"/>
<rect x="0.5" y="0.490234" width="140.34" height="41" rx="20.5" stroke="#112F5F"/>
<path d="M36 29.9902H28C27.4696 29.9902 26.9609 29.7795 26.5858 29.4044C26.2107 29.0294 26 28.5207 26 27.9902V19.9902C26 19.4598 26.2107 18.9511 26.5858 18.576C26.9609 18.2009 27.4696 17.9902 28 17.9902H36C36.5304 17.9902 37.0391 18.2009 37.4142 18.576C37.7893 18.9511 38 19.4598 38 19.9902V27.9902C38 28.5207 37.7893 29.0294 37.4142 29.4044C37.0391 29.7795 36.5304 29.9902 36 29.9902ZM28 19.9902V27.9902H36V19.9902H28Z" fill="white"/>
<path d="M24 23.9902H22C21.4696 23.9902 20.9609 23.7795 20.5858 23.4044C20.2107 23.0294 20 22.5207 20 21.9902V13.9902C20 13.4598 20.2107 12.9511 20.5858 12.576C20.9609 12.2009 21.4696 11.9902 22 11.9902H30C30.5304 11.9902 31.0391 12.2009 31.4142 12.576C31.7893 12.9511 32 13.4598 32 13.9902V15.9902H30V13.9902H22V21.9902H24V23.9902Z" fill="white"/>
<path d="M49.5254 25.3105H45.916V15.1287H49.5552C50.5794 15.1287 51.461 15.3326 52.2001 15.7402C52.9392 16.1446 53.5077 16.7263 53.9054 17.4853C54.3064 18.2443 54.5069 19.1524 54.5069 20.2097C54.5069 21.2703 54.3064 22.1818 53.9054 22.9441C53.5077 23.7064 52.9359 24.2914 52.1902 24.699C51.4478 25.1067 50.5595 25.3105 49.5254 25.3105ZM48.0687 23.4661H49.4359C50.0723 23.4661 50.6076 23.3534 51.0417 23.128C51.4792 22.8993 51.8074 22.5463 52.0261 22.0691C52.2482 21.5885 52.3592 20.9687 52.3592 20.2097C52.3592 19.4573 52.2482 18.8425 52.0261 18.3652C51.8074 17.888 51.4809 17.5366 51.0467 17.3113C50.6125 17.0859 50.0773 16.9732 49.4409 16.9732H48.0687V23.4661ZM62.3906 15.1287H64.5433V21.7409C64.5433 22.4834 64.366 23.133 64.0114 23.6898C63.6601 24.2466 63.1679 24.6808 62.5348 24.9924C61.9018 25.3006 61.1643 25.4547 60.3225 25.4547C59.4773 25.4547 58.7382 25.3006 58.1051 24.9924C57.4721 24.6808 56.9799 24.2466 56.6286 23.6898C56.2772 23.133 56.1016 22.4834 56.1016 21.7409V15.1287H58.2543V21.557C58.2543 21.9448 58.3388 22.2895 58.5078 22.5911C58.6802 22.8927 58.9221 23.1297 59.2337 23.302C59.5452 23.4744 59.9082 23.5605 60.3225 23.5605C60.7401 23.5605 61.103 23.4744 61.4112 23.302C61.7228 23.1297 61.9631 22.8927 62.1321 22.5911C62.3045 22.2895 62.3906 21.9448 62.3906 21.557V15.1287ZM66.3145 25.3105V15.1287H70.3315C71.1038 15.1287 71.7617 15.2762 72.3052 15.5712C72.8488 15.8629 73.2631 16.2689 73.5481 16.7892C73.8365 17.3063 73.9807 17.9029 73.9807 18.579C73.9807 19.2551 73.8348 19.8517 73.5432 20.3688C73.2515 20.8858 72.8289 21.2885 72.2754 21.5769C71.7252 21.8652 71.059 22.0094 70.2768 22.0094H67.7165V20.2843H69.9288C70.3431 20.2843 70.6845 20.213 70.953 20.0705C71.2247 19.9247 71.4269 19.7241 71.5595 19.4689C71.6954 19.2104 71.7633 18.9138 71.7633 18.579C71.7633 18.2409 71.6954 17.946 71.5595 17.6941C71.4269 17.4389 71.2247 17.2417 70.953 17.1025C70.6812 16.9599 70.3365 16.8887 69.9189 16.8887H68.4672V25.3105H66.3145ZM75.3789 25.3105V15.1287H77.5316V23.5357H81.8967V25.3105H75.3789ZM85.475 15.1287V25.3105H83.3223V15.1287H85.475ZM96.2298 18.6934H94.0522C94.0125 18.4116 93.9312 18.1614 93.8086 17.9426C93.686 17.7206 93.5285 17.5317 93.3363 17.3759C93.1441 17.2201 92.922 17.1008 92.6701 17.0179C92.4215 16.9351 92.1514 16.8936 91.8598 16.8936C91.3328 16.8936 90.8737 17.0246 90.4826 17.2864C90.0915 17.5449 89.7883 17.9228 89.5728 18.4199C89.3574 18.9138 89.2497 19.5137 89.2497 20.2196C89.2497 20.9455 89.3574 21.5553 89.5728 22.0492C89.7916 22.543 90.0965 22.9159 90.4876 23.1678C90.8787 23.4197 91.3311 23.5456 91.8448 23.5456C92.1332 23.5456 92.4 23.5075 92.6453 23.4313C92.8938 23.3551 93.1142 23.244 93.3065 23.0982C93.4987 22.949 93.6578 22.7684 93.7838 22.5563C93.913 22.3442 94.0025 22.1022 94.0522 21.8304L96.2298 21.8404C96.1734 22.3077 96.0326 22.7585 95.8072 23.1926C95.5851 23.6235 95.2852 24.0096 94.9073 24.351C94.5328 24.6891 94.0854 24.9576 93.565 25.1564C93.048 25.352 92.463 25.4498 91.81 25.4498C90.9019 25.4498 90.0899 25.2443 89.374 24.8333C88.6614 24.4223 88.0979 23.8274 87.6836 23.0485C87.2726 22.2696 87.0671 21.3266 87.0671 20.2196C87.0671 19.1093 87.2759 18.1647 87.6936 17.3858C88.1112 16.6069 88.6779 16.0137 89.3938 15.606C90.1098 15.195 90.9151 14.9895 91.81 14.9895C92.4 14.9895 92.9469 15.0724 93.4507 15.2381C93.9578 15.4038 94.4069 15.6458 94.798 15.964C95.1891 16.2788 95.5072 16.6649 95.7525 17.1223C96.0011 17.5797 96.1602 18.1034 96.2298 18.6934ZM97.7735 25.3105V15.1287H104.634V16.9036H99.9262V19.3297H104.281V21.1046H99.9262V23.5357H104.654V25.3105H97.7735ZM106.346 25.3105V15.1287H110.363C111.132 15.1287 111.788 15.2663 112.332 15.5414C112.878 15.8132 113.294 16.1993 113.579 16.6998C113.868 17.1969 114.012 17.7819 114.012 18.4547C114.012 19.1309 113.866 19.7125 113.574 20.1998C113.283 20.6837 112.86 21.0549 112.307 21.3134C111.756 21.5719 111.09 21.7012 110.308 21.7012H107.618V19.9711H109.96C110.371 19.9711 110.712 19.9147 110.984 19.802C111.256 19.6893 111.458 19.5203 111.591 19.2949C111.727 19.0695 111.795 18.7895 111.795 18.4547C111.795 18.1167 111.727 17.8316 111.591 17.5996C111.458 17.3676 111.254 17.1919 110.979 17.0726C110.707 16.95 110.364 16.8887 109.95 16.8887H108.498V25.3105H106.346ZM111.844 20.677L114.375 25.3105H111.998L109.523 20.677H111.844ZM117.288 25.3105H114.981L118.496 15.1287H121.27L124.78 25.3105H122.474L119.923 17.4554H119.844L117.288 25.3105ZM117.144 21.3084H122.593V22.9888H117.144V21.3084Z" fill="white"/>
</svg>
