<svg width="19" height="19" viewBox="0 0 19 19" fill="none" xmlns="http://www.w3.org/2000/svg">
<g clip-path="url(#clip0_165_530)">
<path d="M17.0625 9.5C17.0625 5.08172 13.4808 1.5 9.0625 1.5C4.64422 1.5 1.0625 5.08172 1.0625 9.5C1.0625 13.9183 4.64422 17.5 9.0625 17.5C13.4808 17.5 17.0625 13.9183 17.0625 9.5Z" fill="white"/>
<path d="M17.0625 9.5C17.0625 5.08172 13.4808 1.5 9.0625 1.5C4.64422 1.5 1.0625 5.08172 1.0625 9.5C1.0625 13.9183 4.64422 17.5 9.0625 17.5C13.4808 17.5 17.0625 13.9183 17.0625 9.5Z" stroke="#44A036" stroke-width="2"/>
<path d="M17.0625 9.5C17.0625 5.08172 13.4808 1.5 9.0625 1.5C4.64422 1.5 1.0625 5.08172 1.0625 9.5C1.0625 13.9183 4.64422 17.5 9.0625 17.5C13.4808 17.5 17.0625 13.9183 17.0625 9.5Z" stroke="#44A036" stroke-width="2"/>
<path d="M12.9514 7.74035L11.8908 6.67969L6.941 11.6294L8.00167 12.6901L12.9514 7.74035Z" fill="#44A036"/>
<path d="M8.70934 10.5676L6.94156 8.7998L5.52734 10.214L7.29512 11.9818L8.70934 10.5676Z" fill="#44A036"/>
</g>
<defs>
<clipPath id="clip0_165_530">
<rect width="18" height="19" fill="white" transform="translate(0.0625)"/>
</clipPath>
</defs>
</svg>
