<svg width="18" height="19" viewBox="0 0 18 19" fill="none" xmlns="http://www.w3.org/2000/svg">
<g clip-path="url(#clip0_165_524)">
<path d="M17 9.5C17 5.08172 13.4183 1.5 9 1.5C4.58172 1.5 1 5.08172 1 9.5C1 13.9183 4.58172 17.5 9 17.5C13.4183 17.5 17 13.9183 17 9.5Z" fill="white"/>
<path d="M17 9.5C17 5.08172 13.4183 1.5 9 1.5C4.58172 1.5 1 5.08172 1 9.5C1 13.9183 4.58172 17.5 9 17.5C13.4183 17.5 17 13.9183 17 9.5Z" stroke="#767676" stroke-width="2"/>
<path d="M17 9.5C17 5.08172 13.4183 1.5 9 1.5C4.58172 1.5 1 5.08172 1 9.5C1 13.9183 4.58172 17.5 9 17.5C13.4183 17.5 17 13.9183 17 9.5Z" stroke="#767676" stroke-width="2"/>
<path d="M12.889 7.74035L11.8283 6.67969L6.87855 11.6294L7.93922 12.6901L12.889 7.74035Z" fill="#767676"/>
<path d="M8.64684 10.5676L6.87906 8.7998L5.46484 10.214L7.23262 11.9818L8.64684 10.5676Z" fill="#767676"/>
</g>
<defs>
<clipPath id="clip0_165_524">
<rect width="18" height="19" fill="white"/>
</clipPath>
</defs>
</svg>
