<svg width="24" height="24" viewBox="0 0 24 24" fill="none" xmlns="http://www.w3.org/2000/svg">
<path d="M15.375 11.7512C15.4162 11.7785 15.4499 11.8157 15.4732 11.8592C15.4966 11.9028 15.5088 11.9515 15.5088 12.0009C15.5088 12.0503 15.4966 12.099 15.4732 12.1426C15.4499 12.1862 15.4162 12.2233 15.375 12.2507L9.4665 16.1897C9.42136 16.2198 9.3689 16.2371 9.3147 16.2397C9.26051 16.2424 9.2066 16.2303 9.15873 16.2048C9.11086 16.1792 9.07082 16.1412 9.04287 16.0947C9.01492 16.0481 9.0001 15.9949 9 15.9407V8.06116C9.0001 8.0069 9.01492 7.95368 9.04287 7.90718C9.07082 7.86067 9.11086 7.82261 9.15873 7.79706C9.2066 7.77151 9.26051 7.75942 9.3147 7.76208C9.3689 7.76474 9.42136 7.78205 9.4665 7.81216L15.375 11.7512Z" fill="#151515"/>
</svg>
