<svg width="17" height="17" viewBox="0 0 17 17" fill="none" xmlns="http://www.w3.org/2000/svg">
<g id="SVG">
<path id="Polygon 2" d="M8.83589 10.46C8.81764 10.4874 8.79288 10.5099 8.76383 10.5255C8.73479 10.541 8.70234 10.5492 8.66939 10.5492C8.63644 10.5492 8.604 10.541 8.57495 10.5255C8.5459 10.5099 8.52115 10.4874 8.50289 10.46L5.87689 6.52096C5.85681 6.49087 5.84528 6.4559 5.8435 6.41976C5.84173 6.38363 5.84979 6.3477 5.86682 6.31578C5.88386 6.28387 5.90923 6.25718 5.94023 6.23854C5.97124 6.2199 6.00672 6.21003 6.04289 6.20996H11.2959C11.3321 6.21003 11.3675 6.2199 11.3986 6.23854C11.4296 6.25718 11.4549 6.28387 11.472 6.31578C11.489 6.3477 11.4971 6.38363 11.4953 6.41976C11.4935 6.4559 11.482 6.49087 11.4619 6.52096L8.83589 10.46Z" fill="#488AC6"/>
</g>
</svg>
