<svg width="17" height="17" viewBox="0 0 17 17" fill="none" xmlns="http://www.w3.org/2000/svg">
<path d="M8.56294 10.5996C8.54469 10.627 8.51993 10.6495 8.49089 10.6651C8.46184 10.6807 8.4294 10.6888 8.39644 10.6888C8.36349 10.6888 8.33105 10.6807 8.302 10.6651C8.27295 10.6495 8.2482 10.627 8.22994 10.5996L5.60394 6.66061C5.58387 6.63052 5.57233 6.59554 5.57055 6.55941C5.56878 6.52328 5.57684 6.48735 5.59387 6.45543C5.61091 6.42352 5.63628 6.39682 5.66728 6.37819C5.69829 6.35955 5.73377 6.34968 5.76994 6.34961H11.0229C11.0591 6.34968 11.0946 6.35955 11.1256 6.37819C11.1566 6.39682 11.182 6.42352 11.199 6.45543C11.216 6.48735 11.2241 6.52328 11.2223 6.55941C11.2206 6.59554 11.209 6.63052 11.1889 6.66061L8.56294 10.5996Z" fill="black"/>
</svg>
