<svg width="25" height="25" viewBox="0 0 25 25" fill="none" xmlns="http://www.w3.org/2000/svg">
<g id="SVG">
<path id="Rectangle 591" d="M18.0996 5.19043H14.0996C13.5473 5.19043 13.0996 5.63814 13.0996 6.19043V10.1904C13.0996 10.7427 13.5473 11.1904 14.0996 11.1904H18.0996C18.6519 11.1904 19.0996 10.7427 19.0996 10.1904V6.19043C19.0996 5.63814 18.6519 5.19043 18.0996 5.19043Z" fill="white"/>
<path id="Rectangle 594" d="M10.0996 5.19043H6.09961C5.54732 5.19043 5.09961 5.63814 5.09961 6.19043V10.1904C5.09961 10.7427 5.54732 11.1904 6.09961 11.1904H10.0996C10.6519 11.1904 11.0996 10.7427 11.0996 10.1904V6.19043C11.0996 5.63814 10.6519 5.19043 10.0996 5.19043Z" fill="white"/>
<path id="Rectangle 592" d="M18.0996 13.1904H14.0996C13.5473 13.1904 13.0996 13.6381 13.0996 14.1904V18.1904C13.0996 18.7427 13.5473 19.1904 14.0996 19.1904H18.0996C18.6519 19.1904 19.0996 18.7427 19.0996 18.1904V14.1904C19.0996 13.6381 18.6519 13.1904 18.0996 13.1904Z" fill="white"/>
<path id="Rectangle 593" d="M10.0996 13.1904H6.09961C5.54732 13.1904 5.09961 13.6381 5.09961 14.1904V18.1904C5.09961 18.7427 5.54732 19.1904 6.09961 19.1904H10.0996C10.6519 19.1904 11.0996 18.7427 11.0996 18.1904V14.1904C11.0996 13.6381 10.6519 13.1904 10.0996 13.1904Z" fill="white"/>
</g>
</svg>
