<svg width="19" height="21" viewBox="0 0 19 21" fill="none" xmlns="http://www.w3.org/2000/svg">
<path d="M9.63184 6.40918C7.14746 6.40918 5.14355 8.41309 5.14355 10.8975C5.14355 13.3818 7.14746 15.3857 9.63184 15.3857C12.1162 15.3857 14.1201 13.3818 14.1201 10.8975C14.1201 8.41309 12.1162 6.40918 9.63184 6.40918ZM9.63184 13.8154C8.02637 13.8154 6.71387 12.5068 6.71387 10.8975C6.71387 9.28809 8.02246 7.97949 9.63184 7.97949C11.2412 7.97949 12.5498 9.28809 12.5498 10.8975C12.5498 12.5068 11.2373 13.8154 9.63184 13.8154ZM15.3506 6.22559C15.3506 6.80762 14.8818 7.27246 14.3037 7.27246C13.7217 7.27246 13.2568 6.80371 13.2568 6.22559C13.2568 5.64746 13.7256 5.17871 14.3037 5.17871C14.8818 5.17871 15.3506 5.64746 15.3506 6.22559ZM18.3232 7.28809C18.2568 5.88574 17.9365 4.64355 16.9092 3.62012C15.8857 2.59668 14.6436 2.27637 13.2412 2.20605C11.7959 2.12402 7.46387 2.12402 6.01855 2.20605C4.62012 2.27246 3.37793 2.59277 2.35059 3.61621C1.32324 4.63965 1.00684 5.88184 0.936523 7.28418C0.854492 8.72949 0.854492 13.0615 0.936523 14.5068C1.00293 15.9092 1.32324 17.1514 2.35059 18.1748C3.37793 19.1982 4.61621 19.5186 6.01855 19.5889C7.46387 19.6709 11.7959 19.6709 13.2412 19.5889C14.6436 19.5225 15.8857 19.2021 16.9092 18.1748C17.9326 17.1514 18.2529 15.9092 18.3232 14.5068C18.4053 13.0615 18.4053 8.7334 18.3232 7.28809ZM16.4561 16.0576C16.1514 16.8232 15.5615 17.4131 14.792 17.7217C13.6396 18.1787 10.9053 18.0732 9.63184 18.0732C8.3584 18.0732 5.62012 18.1748 4.47168 17.7217C3.70605 17.417 3.11621 16.8271 2.80762 16.0576C2.35059 14.9053 2.45605 12.1709 2.45605 10.8975C2.45605 9.62402 2.35449 6.88574 2.80762 5.7373C3.1123 4.97168 3.70215 4.38184 4.47168 4.07324C5.62402 3.61621 8.3584 3.72168 9.63184 3.72168C10.9053 3.72168 13.6436 3.62012 14.792 4.07324C15.5576 4.37793 16.1475 4.96777 16.4561 5.7373C16.9131 6.88965 16.8076 9.62402 16.8076 10.8975C16.8076 12.1709 16.9131 14.9092 16.4561 16.0576Z" fill="white"/>
</svg>
