<svg width="18" height="21" viewBox="0 0 18 21" fill="none" xmlns="http://www.w3.org/2000/svg">
<path d="M4.29609 18.4H0.667969V6.71641H4.29609V18.4ZM2.48008 5.12266C1.31992 5.12266 0.378906 4.16172 0.378906 3.00156C0.378906 2.4443 0.600279 1.90986 0.994325 1.51581C1.38837 1.12176 1.92281 0.900391 2.48008 0.900391C3.03734 0.900391 3.57178 1.12176 3.96583 1.51581C4.35988 1.90986 4.58125 2.4443 4.58125 3.00156C4.58125 4.16172 3.63984 5.12266 2.48008 5.12266ZM17.875 18.4H14.2547V12.7125C14.2547 11.357 14.2273 9.61875 12.3684 9.61875C10.482 9.61875 10.193 11.0914 10.193 12.6148V18.4H6.56875V6.71641H10.0484V8.31016H10.0992C10.5836 7.39219 11.7668 6.42344 13.532 6.42344C17.2039 6.42344 17.8789 8.84141 17.8789 11.982V18.4H17.875Z" fill="white"/>
</svg>
