<svg width="24" height="25" viewBox="0 0 24 25" fill="none" xmlns="http://www.w3.org/2000/svg">
<path d="M15.19 16.6195C13.9823 17.5286 12.5116 18.02 11 18.0195C9.14422 18.0171 7.36512 17.2789 6.05288 15.9666C4.74064 14.6544 4.00238 12.8753 4 11.0195C4.00238 9.16375 4.74064 7.38465 6.05288 6.07241C7.36512 4.76018 9.14422 4.02191 11 4.01953C12.8558 4.02191 14.6349 4.76018 15.9471 6.07241C17.2594 7.38465 17.9976 9.16375 18 11.0195C18.0002 12.5308 17.5088 14.0011 16.6 15.2085L19.481 18.0895L18.067 19.5045L15.19 16.6195ZM6 11.0195C6.00159 12.3451 6.52888 13.616 7.46622 14.5533C8.40356 15.4906 9.67441 16.0179 11 16.0195C12.3256 16.0179 13.5964 15.4906 14.5338 14.5533C15.4711 13.616 15.9984 12.3451 16 11.0195C15.9984 9.69394 15.4711 8.42309 14.5338 7.48575C13.5964 6.54841 12.3256 6.02112 11 6.01953C9.67441 6.02112 8.40356 6.54841 7.46622 7.48575C6.52888 8.42309 6.00159 9.69394 6 11.0195Z" fill="white"/>
</svg>
