<svg width="24" height="24" viewBox="0 0 24 24" fill="none" xmlns="http://www.w3.org/2000/svg">
<path d="M12.071 4C12.2025 3.9999 12.3327 4.02572 12.4542 4.076C12.5757 4.12628 12.6861 4.20002 12.779 4.293L13.486 4.999L17.729 9.241L16.315 10.655L12.073 6.412L7.83002 10.655L6.41602 9.241L10.659 4.999L11.365 4.293C11.458 4.20002 11.5684 4.12628 11.6898 4.076C11.8113 4.02572 11.9415 3.9999 12.073 4H12.071Z" fill="#151515"/>
<path d="M18 20H5C4.73478 20 4.48043 19.8946 4.29289 19.7071C4.10536 19.5196 4 19.2652 4 19V15H6V18H18V15H20V19C20 19.2652 19.8946 19.5196 19.7071 19.7071C19.5196 19.8946 19.2652 20 19 20H18Z" fill="#151515"/>
<path d="M13.1426 15.0713H11.1426V6.07129C11.1426 5.80607 11.2479 5.55172 11.4355 5.36418C11.623 5.17665 11.8774 5.07129 12.1426 5.07129H13.1426V15.0713Z" fill="#151515"/>
</svg>
