<svg width="17" height="17" viewBox="0 0 17 17" fill="none" xmlns="http://www.w3.org/2000/svg">
<path d="M7.51953 9.34961H9.51953C10.5804 9.34961 11.5978 9.77104 12.348 10.5212C13.0981 11.2713 13.5195 12.2887 13.5195 13.3496C13.5195 13.6148 13.4142 13.8692 13.2266 14.0567C13.0391 14.2443 12.7847 14.3496 12.5195 14.3496H4.51953C4.25431 14.3496 3.99996 14.2443 3.81242 14.0567C3.62489 13.8692 3.51953 13.6148 3.51953 13.3496C3.51953 12.2887 3.94096 11.2713 4.6911 10.5212C5.44125 9.77104 6.45867 9.34961 7.51953 9.34961Z" fill="#151515"/>
<path d="M8.51953 8.34961C10.1764 8.34961 11.5195 7.00646 11.5195 5.34961C11.5195 3.69276 10.1764 2.34961 8.51953 2.34961C6.86268 2.34961 5.51953 3.69276 5.51953 5.34961C5.51953 7.00646 6.86268 8.34961 8.51953 8.34961Z" fill="#151515"/>
</svg>
