<svg width="24" height="21" viewBox="0 0 24 21" fill="none" xmlns="http://www.w3.org/2000/svg">
<path d="M22.3485 5.74738C22.1032 4.82355 21.3803 4.09598 20.4624 3.84906C18.7987 3.40039 12.1276 3.40039 12.1276 3.40039C12.1276 3.40039 5.45652 3.40039 3.79281 3.84906C2.87496 4.09602 2.15207 4.82355 1.90672 5.74738C1.46094 7.42188 1.46094 10.9155 1.46094 10.9155C1.46094 10.9155 1.46094 14.4092 1.90672 16.0837C2.15207 17.0075 2.87496 17.7048 3.79281 17.9517C5.45652 18.4004 12.1276 18.4004 12.1276 18.4004C12.1276 18.4004 18.7987 18.4004 20.4624 17.9517C21.3803 17.7048 22.1032 17.0075 22.3485 16.0837C22.7943 14.4092 22.7943 10.9155 22.7943 10.9155C22.7943 10.9155 22.7943 7.42188 22.3485 5.74738ZM9.94578 14.0875V7.74355L15.5215 10.9156L9.94578 14.0875Z" fill="white"/>
</svg>
